<?xml version="1.0" encoding="UTF-8"?>
<svg id="Layer_1" data-name="Layer 1" xmlns="http://www.w3.org/2000/svg" viewBox="0 0 512 512">
  <defs>
    <style>
      .cls-1 {
        fill: #0fc1b6;
      }

      .cls-2 {
        fill: #f7ab01;
      }

      .cls-3 {
        fill: #ffc800;
      }

      .cls-4 {
        fill: #0da9c0;
      }

      .cls-5 {
        fill: #fffbff;
      }
    </style>
  </defs>
  <g>
    <circle class="cls-3" cx="302.44" cy="55.91" r="15.15"/>
    <circle class="cls-3" cx="253.44" cy="62.38" r="15.15"/>
    <circle class="cls-3" cx="207.77" cy="81.31" r="15.15"/>
    <circle class="cls-3" cx="168.57" cy="111.41" r="15.15"/>
    <circle class="cls-3" cx="138.49" cy="150.64" r="15.15"/>
    <circle class="cls-3" cx="485.41" cy="294.21" r="15.15"/>
    <circle class="cls-3" cx="491.85" cy="245.2" r="15.15"/>
    <circle class="cls-3" cx="485.38" cy="196.2" r="15.15"/>
    <circle class="cls-3" cx="466.45" cy="150.53" r="15.15"/>
    <circle class="cls-3" cx="436.35" cy="111.33" r="15.15"/>
    <circle class="cls-3" cx="397.12" cy="81.25" r="15.15"/>
    <circle class="cls-3" cx="351.45" cy="62.35" r="15.15"/>
  </g>
  <g>
    <path class="cls-4" d="M465.96,392.87c0,39.6-36.27,72.13-82.58,75.68l-17.19-.03-283.89-.43c-2.76,0-5.5-.15-8.19-.44-.86-.09-1.72-.19-2.57-.31-.33-.04-.65-.09-.96-.14-.43-.06-.85-.13-1.27-.2-9.3-1.57-18.03-4.81-25.9-9.37-.75-.44-1.49-.88-2.23-1.34-21.88-13.73-36.45-38.04-36.45-65.77,0-42.84,34.73-77.58,77.57-77.58,.44,0,.88,0,1.32,.01,2.77-61.97,53.89-111.34,116.53-111.34,4.64,0,9.21,.27,13.72,.8,.64,.07,1.28,.15,1.92,.24,1.16,.15,2.33,.33,3.49,.52,34.15,5.74,63.27,26.31,80.51,54.87,.06,.09,.11,.19,.17,.28,.36,.61,.72,1.22,1.08,1.84,9.82,17.1,15.45,36.92,15.45,58.06,0,5.22-.34,10.36-1.01,15.4,.12-.08,.24-.16,.36-.23-.02,.09-.03,.19-.04,.28,16.64-10.87,36.51-17.18,57.86-17.18,4.94,0,9.8,.34,14.56,1,.95,.12,1.89,.27,2.83,.43,.68,.11,1.36,.24,2.04,.36,2.03,.37,4.04,.81,6.03,1.3,16.03,3.94,30.62,11.54,42.84,21.87,14.91,13.53,24,31.59,24,51.42Z"/>
    <path class="cls-1" d="M301.04,260.16c-18.68,26.67-44.42,49.05-73.16,62.46-68.79,31.93-146.19,60.19-184.27,128.99-.84,1.56-1.65,3.12-2.43,4.68-21.88-13.73-36.45-38.04-36.45-65.77,0-42.84,34.73-77.58,77.57-77.58,.44,0,.88,0,1.32,.01,2.77-61.97,53.89-111.34,116.53-111.34,4.64,0,9.21,.27,13.72,.8,.64,.07,1.28,.15,1.92,.24,1.16,.15,2.33,.33,3.49,.52,34.15,5.74,63.27,26.31,80.51,54.87,.06,.09,.11,.19,.17,.28,.36,.61,.72,1.22,1.08,1.84Z"/>
  </g>
  <path class="cls-3" d="M456.09,246.96c0,22.41-4.77,43.71-13.36,62.94-19.08-13.19-42.22-20.9-67.18-20.9-11.82,0-23.25,1.73-34.01,4.97-2.59-12.36-6.7-24.15-12.11-35.19-.05-.1-.1-.19-.15-.29-24.61-49.98-76.05-84.37-135.53-84.37-10.31,0-20.39,1.03-30.14,3.01,25.5-50.28,77.69-84.73,137.92-84.73,39.2,0,74.98,14.6,102.23,38.65,.29,.26,.58,.51,.87,.78,31.58,28.29,51.46,69.39,51.46,115.13Z"/>
  <path class="cls-5" d="M243.88,122.88s49.74-35.53,106-6.51c0,0,5.92,3.55,3.55,10.66,0,0-2.96,7.7-10.07,4.15,0,0-41.45-22.5-86.46,3.55,0,0-7.7,5.94-11.84,0,0,0-5.33-6.51-1.18-11.84Z"/>
  <path class="cls-2" d="M456.09,246.96c0,22.41-4.77,43.71-13.36,62.94-19.08-13.19-42.22-20.9-67.18-20.9-11.82,0-23.25,1.73-34.01,4.97-2.59-12.36-6.7-24.15-12.11-35.19-.05-.1-.1-.19-.15-.29,31.45-18.57,57.16-46.17,70.61-80.91,5.13-14.87,6.61-30.6,4.74-45.75,31.58,28.29,51.46,69.39,51.46,115.13Z"/>
</svg>